HIERARCHY
ROOT hip
{
	OFFSET 0.000000 0.000000 0.000000 
	CHANNELS 6 Xposition Yposition Zposition Xrotation Zrotation Yrotation
	JOINT abdomen
	{
		OFFSET 0.000000 3.402643 0.000000 
		CHANNELS 3 Xrotation Zrotation Yrotation
		JOINT chest
		{
			OFFSET 0.000000 8.438565 -0.680529 
			CHANNELS 3 Xrotation Zrotation Yrotation
			JOINT neck
			{
				OFFSET 0.000000 10.207942 -0.272212 
				CHANNELS 3 Xrotation Zrotation Yrotation
				JOINT head
				{
					OFFSET 0.000000 3.130431 0.000000 
					CHANNELS 3 Xrotation Zrotation Yrotation
					End Site
					{
						OFFSET 0.000000 3.130435 0.000000 
					}
				}
			}
			JOINT lCollar
			{
				OFFSET 3.470700 6.669187 -0.816635 
				CHANNELS 3 Yrotation Zrotation Xrotation
				JOINT lShldr
				{
					OFFSET 3.198488 0.000000 0.000000 
					CHANNELS 3 Zrotation Yrotation Xrotation
					JOINT lForeArm
					{
						OFFSET 10.139888 0.000000 0.000000 
						CHANNELS 3 Yrotation Zrotation Xrotation
						JOINT lHand
						{
							OFFSET 8.370511 0.000000 0.000000 
							CHANNELS 3 Zrotation Yrotation Xrotation
							End Site
							{
								OFFSET 4.083176 0.000000 0.000000 
							}
						}
					}
				}
			}
			JOINT rCollar
			{
				OFFSET -3.470700 6.669187 -0.816635 
				CHANNELS 3 Yrotation Zrotation Xrotation
				JOINT rShldr
				{
					OFFSET -3.198488 0.000000 0.000000 
					CHANNELS 3 Zrotation Yrotation Xrotation
					JOINT rForeArm
					{
						OFFSET -10.139888 0.000000 0.000000 
						CHANNELS 3 Yrotation Zrotation Xrotation
						JOINT rHand
						{
							OFFSET -8.370511 0.000000 0.000000 
							CHANNELS 3 Zrotation Yrotation Xrotation
							End Site
							{
								OFFSET -4.083176 0.000000 0.000000 
							}
						}
					}
				}
			}
		}
	}
	JOINT lThigh
	{
		OFFSET 5.308129 -1.633274 1.361059 
		CHANNELS 3 Xrotation Zrotation Yrotation
		JOINT lShin
		{
			OFFSET -2.041588 -20.007561 0.000000 
			CHANNELS 3 Xrotation Zrotation Yrotation
			JOINT lFoot
			{
				OFFSET 0.000000 -19.190928 -1.224953 
				CHANNELS 3 Xrotation Yrotation Zrotation
				End Site
				{
					OFFSET 0.000000 -2.449906 4.627600 
				}
			}
		}
	}
	JOINT rThigh
	{
		OFFSET -5.308129 -1.633274 1.361059 
		CHANNELS 3 Xrotation Zrotation Yrotation
		JOINT rShin
		{
			OFFSET 2.041588 -20.007561 0.000000 
			CHANNELS 3 Xrotation Zrotation Yrotation
			JOINT rFoot
			{
				OFFSET 0.000000 -19.190928 -1.224953 
				CHANNELS 3 Xrotation Yrotation Zrotation
				End Site
				{
					OFFSET 0.000000 -2.449906 4.627600 
				}
			}
		}
	}
}
MOTION
Frames: 9
Frame Time: 0.016667
23.288746 40.236195 80.392296 -19.386250 -3.241991 -8.881599 34.509216 -2.398309 3.323122 -15.201165 -3.946553 3.768313 -8.717069 5.920717 6.353016 9.009529 2.880686 6.688385 -8.057875 -7.274022 -0.009591 -16.779936 5.593520 -28.272753 -105.864311 1.827747 21.901407 -1.964007 16.045433 -0.552128 20.782480 7.662551 -0.010351 21.029600 -2.280368 -19.178881 110.038269 -0.647984 7.929478 -5.553183 -8.856318 0.846912 -30.617275 14.801713 -5.856683 30.220234 -1.119464 -2.599771 7.658776 -11.958817 -10.655737 7.526715 -19.059053 -9.828142 79.864830 -1.926795 4.142453 -20.374142 1.635921 12.944319 
23.042099 40.738415 79.468719 -19.494989 -3.465330 -9.715370 34.576302 -2.115106 3.537430 -14.858274 -3.994913 3.846921 -8.035607 5.254695 6.914719 8.842216 2.713624 7.068771 -7.608728 -7.684254 -0.009593 -18.708893 6.693111 -27.765011 -106.795250 1.831965 22.016548 -1.040648 16.296120 -0.299871 20.986328 7.617188 -0.001294 22.451326 -2.313782 -18.325436 110.761795 -0.675910 8.292778 -5.812427 -8.998205 0.902152 -28.235245 15.241277 -5.978857 26.642574 -1.270415 -2.375041 4.540310 -7.993180 -11.666672 6.980121 -18.150766 -9.957609 78.276695 -1.809789 4.132022 -21.947805 0.843232 12.703868 
22.825521 41.142174 78.553116 -19.533480 -3.807673 -10.864264 34.821404 -1.958598 3.791184 -14.845942 -4.188850 4.034072 -7.293797 5.365529 7.386866 8.580508 2.197823 7.505685 -7.471967 -7.430372 -0.009601 -20.768024 8.489118 -27.285088 -108.299385 1.831861 22.100710 -0.806388 16.238583 -0.233319 21.044922 7.763672 -0.001319 23.056351 -2.115905 -17.197666 111.405983 -0.671789 8.317200 -6.498003 -8.706516 0.967755 -26.867287 16.187416 -3.836561 26.368418 -1.275934 -2.371917 4.610884 -6.842312 -11.737383 6.277864 -17.459303 -10.179831 76.902412 -1.722017 4.122143 -23.450384 0.367688 12.531928 
22.608982 41.545834 77.637474 -19.576200 -4.155474 -12.005110 35.058510 -1.792380 4.054719 -14.844647 -4.382656 4.221282 -6.541285 5.475883 7.849312 8.309312 1.673294 7.933129 -7.335203 -7.176487 -0.009610 -22.821726 10.297134 -26.862585 -109.800240 1.838722 22.184870 -0.582435 16.180758 -0.169945 21.093750 7.919922 -0.001346 23.665762 -1.933662 -16.072878 112.057358 -0.675201 8.348413 -7.194259 -8.422873 1.038796 -25.444311 17.086813 -1.653949 26.085600 -1.280137 -2.338858 4.692495 -5.715419 -11.797965 5.583571 -16.753040 -10.419898 75.518448 -1.633588 4.109392 -24.956472 -0.112812 12.375409 
22.433134 41.853260 76.705673 -19.152178 -4.376514 -13.056457 35.120571 -1.899625 4.015671 -15.092464 -4.168396 4.219836 -5.655834 5.740092 8.323433 7.551793 1.082101 8.370771 -7.257023 -6.854235 -0.009618 -24.994013 12.311687 -26.874817 -111.997314 1.938436 23.272867 -1.109726 15.924725 -0.312203 20.937500 7.822266 0.000000 23.967459 -1.483429 -14.675133 113.122108 -0.671574 8.353240 -8.222691 -9.241626 1.329447 -25.493757 17.877899 0.742633 29.029118 -1.182861 -2.486729 5.473186 -7.548644 -11.545562 4.402058 -16.176779 -10.466876 74.291122 -1.536149 4.097518 -26.178514 0.193240 12.532258 
22.257278 42.160637 75.773857 -18.722130 -4.584605 -14.108686 35.173340 -1.997113 3.986715 -15.340243 -3.944345 4.228220 -4.775698 6.003263 8.798664 6.796601 0.501810 8.818703 -7.178844 -6.531982 -0.009626 -27.187075 14.325065 -26.968643 -114.197525 2.007665 24.363970 -1.635694 15.667498 -0.449937 20.772722 7.711381 -0.010359 24.289312 -1.040321 -13.275044 114.189789 -0.666230 8.363208 -9.253005 -10.057258 1.619030 -25.514509 18.679197 3.197670 31.980934 -1.065854 -2.636070 6.266001 -9.387994 -11.272804 3.219970 -15.607650 -10.536850 73.063034 -1.448208 4.095569 -27.390299 0.485515 12.711082 
22.076488 42.421982 74.823219 -18.230003 -4.568603 -14.432195 35.329033 -2.241746 3.567070 -15.115352 -3.410059 3.902935 -4.828991 6.083729 9.183527 6.442180 -0.019278 9.228515 -7.081200 -6.600359 -0.009627 -29.145039 15.533102 -27.549887 -116.369659 2.107966 25.513012 -1.311399 15.708771 -0.363759 20.352783 7.594260 -0.010366 24.367146 -0.424007 -12.490272 115.541718 -0.704650 8.768937 -8.791465 -9.866975 1.507956 -26.230463 18.916027 4.287977 35.496887 -0.908103 -2.836000 7.003715 -11.971310 -10.850546 2.320894 -15.059744 -11.065661 71.592735 -1.330664 4.063737 -28.618353 1.010500 13.074409 
21.895741 42.683372 73.872620 -17.749504 -4.542835 -14.764654 35.487888 -2.486459 3.157255 -14.886898 -2.885028 3.568777 -4.880581 6.173545 9.558709 6.080307 -0.539155 9.639068 -6.993323 -6.678498 -0.009627 -31.121986 16.715010 -28.182299 -118.544533 2.173275 26.665512 -0.974027 15.740026 -0.262289 19.932844 7.477139 -0.010374 24.442139 0.188954 -11.710358 116.902420 -0.730401 9.179643 -8.340221 -9.665681 1.400217 -26.931520 19.138985 5.375743 39.002865 -0.741005 -2.986059 7.779018 -14.566015 -10.412188 1.434469 -14.519599 -11.632993 70.121208 -1.233199 4.044165 -29.846693 1.533901 13.429878 
21.747620 42.988091 72.946304 -17.200006 -4.534609 -14.705484 35.660004 -2.457951 2.824693 -14.942605 -2.768968 3.255700 -4.156016 6.391147 9.768955 5.399600 -0.962212 9.835371 -7.247160 -6.278065 -0.009630 -33.029102 17.487154 -28.040857 -120.460838 2.125588 26.169861 0.670359 17.156891 0.217443 19.864479 7.438088 -0.010371 25.285536 -0.272074 -11.383554 118.522713 -0.821836 10.040328 -7.809640 -8.981116 1.215765 -27.661854 18.951700 5.917485 43.071682 -0.526962 -3.196521 6.921051 -15.942570 -10.484431 0.789537 -13.891435 -12.719648 68.250610 -1.106539 4.005796 -30.667683 1.932732 13.740449 
